<svg id="Layer_1" data-name="Layer 1" xmlns="http://www.w3.org/2000/svg" xmlns:xlink="http://www.w3.org/1999/xlink" viewBox="0 0 1473.03 834.01"><defs><style>.cls-1,.cls-2{fill:none;}.cls-2{stroke:#1f2221;stroke-miterlimit:10;stroke-width:17.04px;}.cls-3{clip-path:url(#clip-path);}.cls-4{fill:url(#linear-gradient);}.cls-5{fill:#a5c4c9;}.cls-6{fill:#fff;}.cls-7{fill:#677b7c;}.cls-8{fill:#849da0;}.cls-9{fill:#114177;}.cls-10{fill:#1f2221;}.cls-11{fill:#dac3a7;}.cls-12{fill:#cc9628;}.cls-13{fill:#a64d2a;}</style><clipPath id="clip-path" transform="translate(-1886.48 -158.99)"><path id="ClipPath" class="cls-1" d="M3351,501.49c0,191.09-325.94,346-728,346s-728-154.91-728-346,325.94-338,728-338S3351,310.4,3351,501.49Z"/></clipPath><linearGradient id="linear-gradient" x1="1895" y1="505.5" x2="3351" y2="505.5" gradientUnits="userSpaceOnUse"><stop offset="0" stop-color="#d1ebff" /><stop offset="1" stop-color="#65a8d8" /></linearGradient></defs><title>yankee-logo</title><path id="OutlineBorder" class="cls-2" d="M3351,510.5c0,191.09-325.94,346-728,346s-728-154.91-728-346,325.94-343,728-343S3351,319.41,3351,510.5Z" transform="translate(-1886.48 -158.99)"/><g id="Man"><g class="cls-3"><g id="Background"><path class="cls-4" d="M3351,501.49c0,191.09-325.94,346-728,346s-728-154.91-728-346,325.94-338,728-338S3351,310.4,3351,501.49Z" transform="translate(-1886.48 -158.99)"/></g><g id="Mountains"><path class="cls-5" d="M2825.65,576.39l79.88-50a60.92,60.92,0,0,1,65.24.38l63.36,40.65a72.12,72.12,0,0,0,63.86,7l72.77-26.8A119.76,119.76,0,0,1,3274,557.48l80.44,48.57-57.15,212.74L2792.08,883Z" transform="translate(-1886.48 -158.99)"/><path class="cls-6" d="M2937.85,520.14a58,58,0,0,1,31.3,9.18L3032.51,570a75.11,75.11,0,0,0,66.52,7.26l72.77-26.8a116.78,116.78,0,0,1,100.69,9.61l78.51,47.4L3295,816.07l-499.48,63.51,33-301.42,78.65-49.2a57.91,57.91,0,0,1,30.73-8.82m0-6h0a63.87,63.87,0,0,0-33.91,9.74l-78.65,49.19-2.46,1.55-.32,2.89-33,301.42-.83,7.56,7.55-1L3295.71,822l4-.5,1-3.89L3356.79,609l1.18-4.36-3.87-2.33-78.51-47.41a122.78,122.78,0,0,0-105.86-10.1L3097,571.61a69.1,69.1,0,0,1-61.2-6.68l-63.36-40.66a63.9,63.9,0,0,0-34.54-10.13Z" transform="translate(-1886.48 -158.99)"/><path class="cls-5" d="M2871.52,810.59l29.29-174L2986,607.5a159.74,159.74,0,0,1,116.83,5.3c108.38,48.38,180.87,75,204.11,75a12.76,12.76,0,0,0,5.05-.74,8.08,8.08,0,0,1,3.25-1,3.16,3.16,0,0,1,3.1,2.22c.85,2.7,1.16,3.71-34.82,30.08-18.2,13.33-43.68,31.56-75.74,54.19-54.57,38.52-110,77-110.58,77.33l-1,.7Z" transform="translate(-1886.48 -158.99)"/><path class="cls-6" d="M3037.64,601.91a156.88,156.88,0,0,1,63.94,13.63c66.79,29.82,173.81,75.29,205.33,75.29a15.81,15.81,0,0,0,6.29-1,6.4,6.4,0,0,1,2-.68c8.87,0-219.75,158.35-219.75,158.35L2875,808.16l28.5-169.29,83.47-28.53a156.71,156.71,0,0,1,50.7-8.43m0-6v0h0a162.24,162.24,0,0,0-52.64,8.75l-83.47,28.54-3.38,1.15-.6,3.53-28.5,169.28-1,5.86,5.85,1.05,220.49,39.33,2.43.43,2-1.4c.55-.39,56-38.82,110.6-77.35,32.07-22.63,57.57-40.88,75.78-54.23,10.85-8,19.22-14.24,24.88-18.7,3.16-2.48,5.49-4.4,7.11-5.86,2.07-1.88,5.21-4.71,3.93-8.82a6.2,6.2,0,0,0-6-4.33,10.91,10.91,0,0,0-4.48,1.21,10,10,0,0,1-3.82.48c-22.83,0-94.88-26.56-202.89-74.77a161.77,161.77,0,0,0-66.38-14.15Z" transform="translate(-1886.48 -158.99)"/><path class="cls-5" d="M2116.57,576l1.09-.55c3.37-1.7,82.85-41.62,132.36-47.34l54.8-32.56a64.44,64.44,0,0,1,56.1-4.74l131.55,50.68,22.1,174.21L2050.12,767.6Z" transform="translate(-1886.48 -158.99)"/><path class="cls-6" d="M2337.75,489.53a61.44,61.44,0,0,1,22.09,4.11l129.88,50,21.49,169.41-456.7,51L2119,578.16s82.49-41.66,132-47.11l55.35-32.89a61.42,61.42,0,0,1,31.4-8.63m0-6v0a67.53,67.53,0,0,0-34.47,9.47L2249,525.24c-50.09,6-129.36,45.86-132.74,47.56l-2.16,1.1-.8,2.29-64.5,185.93-3.11,9,9.45-1.06,456.7-51,6-.67-.77-6-21.49-169.42-.45-3.55-3.34-1.29L2362,488a67.28,67.28,0,0,0-24.25-4.51Z" transform="translate(-1886.48 -158.99)"/><path class="cls-5" d="M2259,850.32C1955.19,743.07,1912,740,1908,740h-.09l-5.27,1.43,2-5.32L1944.1,613.3l138.48-52.44a113.16,113.16,0,0,1,81.68.6l308,121.82-211.7,167.59Z" transform="translate(-1886.48 -158.99)"/><path class="cls-6" d="M2122.64,556.53a110.21,110.21,0,0,1,40.51,7.72l303.18,119.91L2260,847.49C1957.7,740.77,1912.88,737,1908,737a4.23,4.23,0,0,0-.51,0l39-121.39,137.12-51.93a110.12,110.12,0,0,1,39-7.14m0-6v0a115.64,115.64,0,0,0-41.14,7.53L1944.39,610l-2.7,1-.89,2.75-39,121.4-3,9.34,9.32-1.53c1.76,0,13.72.9,62.68,15,63.52,18.3,160.15,50.32,287.19,95.17l3.13,1.1,2.6-2,206.33-163.34,8.15-6.45-9.67-3.83L2165.36,558.67a115.69,115.69,0,0,0-42.71-8.14Z" transform="translate(-1886.48 -158.99)"/></g><g id="Trees"><polygon class="cls-7" points="284.48 623.34 306.23 640.74 285.14 612.15 304.26 625.83 283.82 598.48 302.94 612.77 285.8 589.78 301.62 602.21 283.16 576.1 300.3 592.26 283.16 567.4 298.98 579.83 285.14 562.43 298.98 572.38 283.82 553.73 295.02 562.43 291.07 556.61 279.86 538.19 268.66 556.61 264.7 562.43 275.91 553.73 260.75 572.38 274.59 562.43 260.75 579.83 276.57 567.4 259.43 592.26 276.57 576.1 258.11 602.21 273.93 589.78 256.79 612.77 275.91 598.48 255.47 625.83 274.59 612.15 253.49 640.74 275.25 623.34 250.85 655.04 279.86 650.09 308.87 655.04 284.48 623.34"/><polygon class="cls-7" points="203.98 598.84 225.73 616.24 204.64 587.65 223.76 601.33 203.32 573.98 222.44 588.27 205.29 565.28 221.12 577.71 202.66 551.6 219.8 567.76 202.66 542.9 218.48 555.33 204.64 537.93 218.48 547.88 203.32 529.23 214.52 537.93 210.57 532.11 199.36 513.69 188.16 532.11 184.2 537.93 195.41 529.23 180.25 547.88 194.09 537.93 180.25 555.33 196.07 542.9 178.93 567.76 196.07 551.6 177.61 577.71 193.43 565.28 176.29 588.27 195.41 573.98 174.97 601.33 194.09 587.65 172.99 616.24 194.75 598.84 170.35 630.54 199.36 625.59 228.37 630.54 203.98 598.84"/><polygon class="cls-8" points="165.96 543.51 185.83 557.51 166.56 534.51 184.03 545.51 165.36 523.51 182.82 535.01 167.16 516.51 181.62 526.51 164.75 505.51 180.41 518.51 164.75 498.51 179.21 508.51 166.56 494.51 179.21 502.51 165.36 487.51 175.59 494.51 171.98 489.82 161.74 475.01 151.51 489.82 147.89 494.51 158.13 487.51 144.28 502.51 156.93 494.51 144.28 508.51 158.73 498.51 143.07 518.51 158.73 505.51 141.87 526.51 156.32 516.51 140.66 535.01 158.13 523.51 139.46 545.51 156.93 534.51 137.66 557.51 157.53 543.51 135.24 569.01 161.74 565.03 188.24 569.01 165.96 543.51"/><polygon class="cls-8" points="250.15 574.39 276.65 595.59 250.95 560.76 274.24 577.42 249.34 544.11 272.63 561.52 251.75 533.5 271.03 548.65 248.54 516.85 269.42 536.53 248.54 506.25 267.81 521.39 250.95 500.19 267.81 512.3 249.34 489.59 263 500.19 258.18 493.1 244.53 470.66 230.87 493.1 226.06 500.19 239.71 489.59 221.24 512.3 238.1 500.19 221.24 521.39 240.51 506.25 219.63 536.53 240.51 516.85 218.02 548.65 237.3 533.5 216.41 561.52 239.71 544.11 214.81 577.42 238.1 560.76 212.4 595.59 238.9 574.39 209.19 613.01 244.53 606.98 279.86 613.01 250.15 574.39"/><polygon class="cls-8" points="321.17 602.42 342.92 619.83 321.83 591.24 340.95 604.91 320.51 577.56 339.63 591.86 322.49 568.86 338.31 581.29 319.85 555.19 336.99 571.35 319.85 546.49 335.67 558.92 321.83 541.51 335.67 551.46 320.51 532.81 331.71 541.51 327.76 535.69 316.55 517.27 305.35 535.69 301.39 541.51 312.6 532.81 297.44 551.46 311.28 541.51 297.44 558.92 313.26 546.49 296.12 571.35 313.26 555.19 294.8 581.29 310.62 568.86 293.48 591.86 312.6 577.56 292.16 604.91 311.28 591.24 290.18 619.83 311.94 602.42 287.55 634.12 316.55 629.17 345.56 634.12 321.17 602.42"/><polygon class="cls-8" points="394.66 544 416.42 561.4 395.32 532.81 414.44 546.49 394 519.14 413.12 533.43 395.98 510.44 411.8 522.87 393.35 496.76 410.48 512.92 393.35 488.06 409.17 500.49 395.32 483.09 409.17 493.03 394 474.39 405.21 483.09 401.25 477.27 390.05 458.85 378.84 477.27 374.89 483.09 386.09 474.39 370.93 493.03 384.77 483.09 370.93 500.49 386.75 488.06 369.61 512.92 386.75 496.76 368.29 522.87 384.12 510.44 366.97 533.43 386.09 519.14 365.65 546.49 384.77 532.81 363.68 561.4 385.44 544 361.04 575.7 390.05 570.75 419.06 575.7 394.66 544"/><polygon class="cls-8" points="1269.16 586.75 1290.91 604.15 1269.82 575.56 1288.93 589.24 1268.5 561.89 1287.62 576.18 1270.47 553.19 1286.3 565.62 1267.84 539.51 1284.98 555.67 1267.84 530.81 1283.66 543.24 1269.82 525.84 1283.66 535.78 1268.5 517.14 1279.7 525.84 1275.75 520.02 1264.54 501.6 1253.34 520.02 1249.38 525.84 1260.59 517.14 1245.43 535.78 1259.27 525.84 1245.43 543.24 1261.25 530.81 1244.11 555.67 1261.25 539.51 1242.79 565.62 1258.61 553.19 1241.47 576.18 1260.59 561.89 1240.15 589.24 1259.27 575.56 1238.17 604.15 1259.93 586.75 1235.54 618.45 1264.54 613.5 1293.55 618.45 1269.16 586.75"/><polygon class="cls-8" points="1152.26 565.97 1174.02 584.57 1152.92 554.01 1172.04 568.63 1151.6 539.4 1170.72 554.68 1153.58 530.11 1169.4 543.39 1150.94 515.5 1168.08 532.76 1150.94 506.2 1166.77 519.48 1152.92 500.88 1166.77 511.51 1151.6 491.59 1162.81 500.88 1158.86 494.66 1147.65 474.98 1136.44 494.66 1132.49 500.88 1143.69 491.59 1128.53 511.51 1142.38 500.88 1128.53 519.48 1144.35 506.2 1127.21 532.76 1144.35 515.5 1125.89 543.39 1141.72 530.11 1124.57 554.68 1143.69 539.4 1123.26 568.63 1142.38 554.01 1121.28 584.57 1143.04 565.97 1118.64 599.84 1147.65 594.55 1176.66 599.84 1152.26 565.97"/><polygon class="cls-7" points="1224.77 589.66 1244.82 605.7 1225.38 579.35 1243 591.95 1224.16 566.75 1241.79 579.92 1225.99 558.73 1240.57 570.18 1223.56 546.12 1239.35 561.02 1223.56 538.1 1238.14 549.56 1225.38 533.52 1238.14 542.68 1224.16 525.5 1234.49 533.52 1230.85 528.15 1220.52 511.18 1210.19 528.15 1206.54 533.52 1216.87 525.5 1202.9 542.68 1215.66 533.52 1202.9 549.56 1217.48 538.1 1201.68 561.02 1217.48 546.12 1200.46 570.18 1215.05 558.73 1199.25 579.92 1216.87 566.75 1198.03 591.95 1215.66 579.35 1196.21 605.7 1216.26 589.66 1193.78 618.88 1220.52 614.32 1247.26 618.88 1224.77 589.66"/><polygon class="cls-8" points="1306.04 604.74 1327.8 622.14 1306.7 593.55 1325.82 607.22 1305.38 579.87 1324.5 594.17 1307.36 571.17 1323.18 583.6 1304.72 557.5 1321.86 573.66 1304.72 548.8 1320.54 561.23 1306.7 543.83 1320.54 553.77 1305.38 535.12 1316.59 543.83 1312.63 538 1301.43 519.59 1290.22 538 1286.27 543.83 1297.47 535.12 1282.31 553.77 1296.15 543.83 1282.31 561.23 1298.13 548.8 1280.99 573.66 1298.13 557.5 1279.67 583.6 1295.49 571.17 1278.35 594.17 1297.47 579.87 1277.03 607.22 1296.15 593.55 1275.06 622.14 1296.81 604.74 1272.42 636.43 1301.43 631.48 1330.43 636.43 1306.04 604.74"/></g><g id="Hat"><path class="cls-9" d="M2831.44,571.31c-23.81,0-48.18-12.16-61.28-18.7-43.38-21.67-80-57.33-109-106A391.4,391.4,0,0,1,2622.7,358a391.32,391.32,0,0,1-38.45,88.63c-29,48.69-65.62,84.36-109,106-13.12,6.55-37.5,18.72-61.31,18.72-11.72,0-22.06-2.94-30.71-8.76-10.54-7.08-24-22.25-28.12-54.32-2.69-21,.94-42.71,27.43-91.42,18.61-34.21,31.42-50.6,41.71-63.77s18.48-23.66,29.25-47.21a353.85,353.85,0,0,0,13.08-33.2c5.75-16.42,10.29-29.39,24.5-48.29,13.67-18.15,34.27-45.52,63.67-45.52.89,0,1.78,0,2.67.08,13.76.77,34.23,8.3,53.55,39.76,4.3,7,7.64,22.61,11.71,45.41,4.07-22.8,7.4-38.39,11.67-45.37,19.35-31.5,39.82-39,53.59-39.8.88-.06,1.77-.08,2.66-.08,29.4,0,50,27.36,63.64,45.47,14.24,19,18.78,31.92,24.53,48.34a353.85,353.85,0,0,0,13.08,33.2c10.77,23.55,18.93,34,29.25,47.21s23.1,29.56,41.71,63.77c26.49,48.71,30.12,70.39,27.44,91.38-4.17,32.11-17.59,47.28-28.13,54.36C2853.5,568.36,2843.17,571.31,2831.44,571.31Z" transform="translate(-1886.48 -158.99)"/><path class="cls-10" d="M2690.63,187.34c25.17,0,44.16,25.25,56.87,42.12,21.37,28.43,19.6,42.72,36.63,79.92,22.41,49,34.71,44.39,71.23,111.5,24.73,45.47,29.06,65.94,26.47,86.23-.92,7.07-4.52,35-24.43,48.37-7.87,5.29-16.81,7.32-26,7.32-21.82,0-44.86-11.51-57.51-17.83-93-46.47-137.75-153.31-151.24-222.62-13.46,69.31-58.16,176.15-151.21,222.62-12.65,6.32-35.69,17.83-57.51,17.83-9.15,0-18.09-2-26-7.32-19.91-13.38-23.51-41.3-24.43-48.37-2.59-20.29,1.74-40.76,26.47-86.23,36.52-67.11,48.82-62.53,71.23-111.5,17-37.2,15.26-51.49,36.63-79.92,12.71-16.87,31.7-42.12,56.87-42.12.72,0,1.45,0,2.18.06,25.77,1.45,42.56,28.84,46.8,35.75,4.65,7.59,9.18,34.31,13,56.32a6,6,0,0,0,11.9,0c3.82-22,8.34-48.73,13-56.32,4.24-6.91,21-34.3,46.8-35.75.73,0,1.46-.06,2.18-.06m0-17v0c-1.05,0-2.11,0-3.16.09-15.78.89-39.07,9.22-60.32,43.82h0l0,0a48.41,48.41,0,0,0-4.41,10.25,48.91,48.91,0,0,0-4.42-10.25c-21.28-34.64-44.57-43-60.37-43.86-1-.06-2.09-.09-3.14-.09-33.65,0-56.68,30.6-70.45,48.87h0l0,0c-15,20-20,34.16-25.73,50.6a347.61,347.61,0,0,1-12.78,32.46c-10.36,22.65-18.24,32.74-28.23,45.52-10.48,13.41-23.52,30.11-42.47,64.94-24.36,44.78-31.79,70.05-28.4,96.53,4.57,35.29,19.82,52.29,31.81,60.35,10.09,6.78,22,10.21,35.47,10.21,25.82,0,51.36-12.75,65.08-19.6a249.4,249.4,0,0,0,65.51-47.91,317.11,317.11,0,0,0,47-61.39,393.17,393.17,0,0,0,31.13-65.83,392.49,392.49,0,0,0,31.14,65.83,317.11,317.11,0,0,0,47,61.39,249.33,249.33,0,0,0,65.47,47.89c13.76,6.87,39.3,19.62,65.12,19.62,13.45,0,25.38-3.43,35.46-10.21,12-8.06,27.25-25.07,31.82-60.3,3.39-26.53-4-51.8-28.4-96.58-19-34.83-32-51.53-42.47-64.94-10-12.78-17.87-22.87-28.23-45.51a348.74,348.74,0,0,1-12.78-32.47c-5.75-16.44-10.72-30.64-25.73-50.6l0-.05c-13.76-18.28-36.79-48.87-70.44-48.87Z" transform="translate(-1886.48 -158.99)"/></g><g id="Shirt"><polygon class="cls-9" points="251.37 703.47 288.91 614.22 328.47 549.51 341.1 549.51 344.57 526.99 578.64 477.5 757.15 480.02 1020.66 456.37 1180.9 512.86 1196.57 532.15 1231.26 640.54 925.73 824.55 251.37 703.47"/><path class="cls-10" d="M2906,624.49l156,55,13,16,32,100L2810.47,974.08l-660-118.5,32.91-78.26L2220,717.49h25l-8-11,2-13,227-48L2644,648l262-23.52m2.29-18.27-3.9.35L2643.3,630l-177.05-2.5-2,0-2,.41-227,48-12.18,2.58-1.89,12.3-1.35,8.73h-10l-5.27,8.61-36.57,59.83-.71,1.16-.53,1.25-32.92,78.27-8.71,20.72,22.13,4,660,118.49L2814,993l5.8-3.49,296.53-178.59,12.19-7.34L3124.14,790l-32-100-1-3.23-2.14-2.64-13-16-3.2-3.94-4.79-1.68-156-55-3.69-1.3Z" transform="translate(-1886.48 -158.99)"/></g><path id="FaceShadow" class="cls-10" d="M2383,678.49s-35-10.68-35-35.84S2422.5,577,2427.5,573,2459,551.6,2457,513.3,2451,383,2510.5,346s116-54,180-19.5c0,0,49.61-5.51,53.5,25,0,0,23,13.5,23,17s5,115.8,5.5,122.65-2,74.35,110,49.85c0,0,10.51,12.5,15,16s6,10,6,13c0,0,23.5,2,25,5s33.5,27.92,33.5,32.46c0,0,7,25-10.5,22.54l-189.17-5.5-93.83,74.67-110.83-26.33S2465,632.16,2383,678.49Z" transform="translate(-1886.48 -158.99)"/><path id="Neck" class="cls-11" d="M2551,642.65s85,17.66,115,0l2.5,36.34-45.79,58L2551,651Z" transform="translate(-1886.48 -158.99)"/><g id="Lapels"><path class="cls-12" d="M2587.66,817.16a9,9,0,0,1-8.43-5.87h0a168.8,168.8,0,0,0-26.36-43.73c-23.44-28-51.62-42.27-83.75-42.27a121.43,121.43,0,0,0-26.17,3,9.24,9.24,0,0,1-1.95.21,9,9,0,0,1-7.94-13.24c2.74-5.12,17-31,28.28-38.58,1.62-1.08,2.85-3.27,3.71-5.85A271.74,271.74,0,0,1,2419.3,675a176.64,176.64,0,0,1-27-1.94,9,9,0,0,1-5.33-14.89c2.17-2.42,53.79-59.49,114.94-76.66a9,9,0,0,1,10.89,5.58c.37,1,38.72,103.83,120.8,156.16a9,9,0,0,1-3.39,16.47,47.49,47.49,0,0,0-18.59,8.62c-11.31,8.75-16.35,21.91-15,39.11a9,9,0,0,1-7,9.51A9.22,9.22,0,0,1,2587.66,817.16Z" transform="translate(-1886.48 -158.99)"/><path class="cls-10" d="M2504.33,590.16s38.67,106,124.42,160.67c0,0-45.08,7.33-41.08,57.33,0,0-33.91-91.86-118.55-91.86a129.21,129.21,0,0,0-28.12,3.19s15.33-28.66,25.33-35.33,9.34-24.67,9.34-24.67a265.09,265.09,0,0,1-56.37,6.5,167.94,167.94,0,0,1-25.63-1.83s51.33-57.33,110.66-74m0-18a18.13,18.13,0,0,0-4.86.67c-63.65,17.88-117,76.82-119.21,79.32a18,18,0,0,0,10.65,29.8,187.08,187.08,0,0,0,28.39,2c8.26,0,16.25-.45,23.56-1.13-2.4,3.17-5.11,7-8.14,11.81-5.38,8.47-9.42,16-9.59,16.33A18,18,0,0,0,2441,737.49a18.38,18.38,0,0,0,3.89-.42,111.86,111.86,0,0,1,24.23-2.77c71.27,0,101.36,79.29,101.66,80.09a18,18,0,0,0,16.88,11.77,18.43,18.43,0,0,0,3.88-.42,18,18,0,0,0,14.07-19c-1.15-14.37,2.74-24.71,11.9-31.58a38.43,38.43,0,0,1,14.13-6.55,18,18,0,0,0,6.79-32.94c-41.15-26.23-70.71-65.78-88.25-94.34-19.38-31.53-28.85-57.08-28.94-57.34a18,18,0,0,0-16.91-11.81Z" transform="translate(-1886.48 -158.99)"/><path class="cls-12" d="M2577,840.49a9,9,0,0,1-8.06-13c43.54-87.78,78.35-138.71,106.4-155.7l.67-.4A187.57,187.57,0,0,0,2696.9,657a197.86,197.86,0,0,0,41.61-45.44,9,9,0,0,1,7.49-4h.18c2.26,0,4.55.06,6.8.06a346.37,346.37,0,0,0,37.05-2c11.07-1.21,19.28-2.65,26.53-3.92,9.75-1.7,18.16-3.18,28.9-3.18,1.07,0,2.16,0,3.28,0,17.34.46,35,4.58,52.39,12.26a9,9,0,0,1,1,16,248.16,248.16,0,0,1-69.76,28.53c12.23,6.4,29,17.55,35.89,33.1a9,9,0,0,1-7.76,12.62c-.46,0-47.22,2.69-96,20.37-63.66,23.07-100.54,59.5-109.64,108.29a9,9,0,0,1-8.39,7.34l-69,3.5Z" transform="translate(-1886.48 -158.99)"/><path class="cls-10" d="M2845.46,607.45c1,0,2,0,3,0,11.61.31,28.5,2.47,49,11.5a236.32,236.32,0,0,1-82,30.5v8s35,13,44.5,34.5c0,0-190.5,10-214,136l-69,3.5c51.41-103.65,83-139.89,103-152a197.3,197.3,0,0,0,22.5-15.5,206.57,206.57,0,0,0,43.5-47.5c2.1,0,4.43.07,7,.07a352.56,352.56,0,0,0,38-2.07c26.39-2.87,37-7,54.46-7m0-18h0c-11.52,0-20.29,1.54-30.45,3.32-7.11,1.24-15.17,2.66-26,3.83a335.79,335.79,0,0,1-36.08,2c-2.19,0-4.41,0-6.61-.06H2746a18,18,0,0,0-15,8,188.51,188.51,0,0,1-39.71,43.37,177.74,177.74,0,0,1-19.92,13.77l-.7.42c-13.91,8.42-28.64,23.67-45,46.6-19.1,26.71-40.89,64.66-64.77,112.8a18,18,0,0,0,16.13,26c.3,0,.61,0,.91,0l69-3.5a18,18,0,0,0,16.78-14.68c8.46-45.33,43.28-79.43,103.49-101.35,47.53-17.29,93.32-20,93.78-20a18,18,0,0,0,15.5-25.25c-4.71-10.67-13.29-19.43-22.29-26.26a261.39,261.39,0,0,0,52.54-24,18,18,0,0,0-1.95-31.94c-18.5-8.14-37.26-12.53-55.78-13-1.18,0-2.36,0-3.51,0Z" transform="translate(-1886.48 -158.99)"/></g><g id="Face"><g id="LeftFace"><path class="cls-11" d="M2613.1,643.37c-2.06,0-4.14,0-6.21-.11a428.92,428.92,0,0,1-58-5.33c-21.66-3.61-28.48-21.15-29.08-30.06L2510.91,535l1.7-1.48c-4.67-.75-9.53-1.92-12-3.76-2.19-1.64-4.4-5.1-5.78-19.16-.75-7.71-1-16.37-1-21.44a43.34,43.34,0,0,1,2.73-15.12,8.11,8.11,0,0,1,7.54-5.22,7.82,7.82,0,0,1,1.6.16,7.92,7.92,0,0,1,6.08,5.47c1.28,4.17,5.27,13.11,11,24.52a.1.1,0,0,0,.1.06c.1,0,.13-.09.11-.15-8.88-24.88-13.59-38.48-14-40.41-.32-1.46-7.73-35.93,7.91-61,15.34-24.63,54.76-28.3,56.43-28.44l7.28-.63-2.72,6.79c-.52,1.31-1.45,2.13-3,3.51-2,1.81-6.27,5.59-6.35,8.65,0,.39-.05,1.59,1.68,3.31,1.47,1.47,6.82,4.87,24.94,4.87,5.8,0,11-.37,13.6-.59l.56,0a6.52,6.52,0,0,1,6.44,7.51l-1.1,7.25,42.21-2.62v11.29h37l-68.72,32.29a10.69,10.69,0,0,0-6,11.53l6.79,38.14a11.61,11.61,0,0,1-2.54,9.53l-.27.31,14.5-.09a23.68,23.68,0,0,0,10.24-2.47,22.83,22.83,0,0,1,9.81-2.58,9.56,9.56,0,0,1,7.44,3.5,11.29,11.29,0,0,1,2.54,8.92,11.91,11.91,0,0,1-5.26,8.27,54.58,54.58,0,0,1-6.51,3.72,31.92,31.92,0,0,1-13.08,3h-.27c6,2.19,7.13,6.79,7.29,9.11.92,13.28-11.25,14.13-18.52,14.63l-2.18.16-3.42.25c-2.75.19-5.75.39-9.22.82l1.93,0c6.41,0,12.55.67,14.93,1.62,4.26,1.71,14.16,6.79,14.16,17.18,0,8.08-4.09,13.46-12.16,16-1.21.39-4.45,1.4-54.45,1.51h-.13a51.41,51.41,0,0,1-18.21-3.23l-.18-.07c-1.13-.42-2.14-.85-3-1.23a9.27,9.27,0,0,0,.55,1.09c2.22,3.76,7.82,5.23,16.75,6.49a243.45,243.45,0,0,0,33.2,2.59c9.36,0,16.83-.82,22.21-2.44l.12,0a61.06,61.06,0,0,1,13.9-2.48l.44,0c1.64-.1,3.06-.19,4.41-.19a21,21,0,0,1,5.59.69c7.79,2.11,16.63,8.7,17.64,18.21.9,8.48-4.92,14.79-6.83,16.86-5.71,6.18-12.74,8.54-22.95,10.53a163.7,163.7,0,0,1-31.26,3ZM2576.91,532.6l.34.06h.16a4.83,4.83,0,0,1-.45-.26C2576.94,532.47,2576.93,532.54,2576.91,532.6Z" transform="translate(-1886.48 -158.99)"/><path class="cls-10" d="M2573.67,373.49c-.67,1.67-16,11-6.67,20.34,5,5,17.59,6.18,28.12,6.18,5.82,0,11-.35,14-.6h.18a2,2,0,0,1,2,2.33l-2,12.76,43-2.66v11h21.34l-50.48,23.72a15.16,15.16,0,0,0-8.48,16.39l6.79,38.14a7.15,7.15,0,0,1-7,8.41h-19.1a2.66,2.66,0,0,0,0,5.32h0l42.27-.27a28.41,28.41,0,0,0,12.17-2.92,18.93,18.93,0,0,1,7.85-2.13,5.12,5.12,0,0,1,4,1.92,7.13,7.13,0,0,1-1.76,10.5,51,51,0,0,1-5.93,3.41,27.76,27.76,0,0,1-11.25,2.59c-16,.24-60.76.92-62.41.92-2,0-1-1.67-3.33-2.34a4.73,4.73,0,0,0-1.2-.2c-1.3,0-1.67,1-2.47,2.87-1,2.33-2.66,7.33,3.67,8l47.67-.33a49,49,0,0,1,9.81-1.13c5.17,0,10.51,1.21,10.85,6.13.67,9.66-8.33,9.33-16.58,10s-18.08.66-36.05,6.33-9,10.33-9,10.33a7.42,7.42,0,0,0,3.09.6,10.72,10.72,0,0,0,5.94-1.93c7-4.12,17.35-5.3,25.71-5.3,6.52,0,11.8.72,13.26,1.3,3.33,1.33,11.33,5.33,11.33,13s-4.67,10.33-9,11.69c-3.45,1.08-38.88,1.27-53.12,1.3h-.12a47.16,47.16,0,0,1-16.63-2.94l-.13-.05c-4.1-1.55-6.5-3-8-3a1.61,1.61,0,0,0-1,.31c-1.64,1.26-.85,5.87,1,9,3.31,5.62,10.49,7.33,20,8.67a256.76,256.76,0,0,0,33.83,2.63c8.47,0,17-.66,23.5-2.63a55.81,55.81,0,0,1,13-2.33c1.79-.11,3.25-.21,4.58-.21a16.42,16.42,0,0,1,4.42.54c6,1.62,13.53,6.76,14.34,14.33.68,6.46-3.91,11.42-5.67,13.34-4.7,5.09-10.69,7.25-20.5,9.16a158.59,158.59,0,0,1-30.4,2.88c-2,0-4,0-6.1-.11a420.41,420.41,0,0,1-57.33-5.27c-24-4-25.34-26-25.34-26l-8.66-70.62,7.66-6.67s-16-1-20-4-5-27.33-5-37a39,39,0,0,1,2.44-13.54,3.56,3.56,0,0,1,3.33-2.3,3.35,3.35,0,0,1,.71.07l.09,0a3.4,3.4,0,0,1,2.58,2.36c1.86,6.09,8.05,18.82,11.25,25.21a4.59,4.59,0,0,0,4.12,2.55,4.6,4.6,0,0,0,4.35-6.16c-3.74-10.47-13.33-37.46-13.87-39.88-.66-3-7-34.66,7.34-57.66s53-26.34,53-26.34m13.78-10.22-14.56,1.26c-1.76.15-43.34,4-59.86,30.54-16.33,26.19-9.33,60.54-8.48,64.38a50.16,50.16,0,0,0,1.56,5,12.2,12.2,0,0,0-2-.16,12.63,12.63,0,0,0-11.75,8.13,47.76,47.76,0,0,0-3,16.71c0,5.17.28,14,1.05,21.88,1.28,13.1,3.33,19.15,7.55,22.32a25.08,25.08,0,0,0,8.68,3.58l.12,1,8.64,70.38c.75,10.2,8.49,30,32.82,34.07a427,427,0,0,0,58.6,5.39c2.1.08,4.22.11,6.31.11a168.58,168.58,0,0,0,32.12-3c10.85-2.11,18.88-4.84,25.39-11.9,2.26-2.44,9.12-9.88,8-20.39-1.24-11.68-11.41-19.5-20.94-22.07a25.32,25.32,0,0,0-6.77-.85c-1.15,0-2.3.06-3.55.13a20.91,20.91,0,0,0,4.64-13.59c0-6.68-3.41-12.75-9.42-17.2a19.81,19.81,0,0,0,2.51-1c6.38-3,9.75-9.15,9.22-16.76a15.06,15.06,0,0,0-1.62-5.8,36.92,36.92,0,0,0,5.09-1.93,58.31,58.31,0,0,0,7.07-4,16.37,16.37,0,0,0,7.25-11.39,15.77,15.77,0,0,0-3.57-12.48,14.11,14.11,0,0,0-10.86-5.08,27.17,27.17,0,0,0-11.77,3,19.35,19.35,0,0,1-8.31,2l-7.3,0a16.19,16.19,0,0,0,.07-6.09l-6.79-38.14a6.19,6.19,0,0,1,3.45-6.67L2677.49,431,2714,413.83h-52.65V402.25l-9.55.59-31.87,2,.26-1.73a11,11,0,0,0-10.89-12.69c-.32,0-.63,0-.94,0-2.52.21-7.59.57-13.22.57-18,0-21.72-3.51-21.76-3.55a2.62,2.62,0,0,1-.24-.26c.49-1.06,2.08-2.8,4.73-5.16,1.75-1.56,3.26-2.91,4.17-5.2l5.43-13.57Z" transform="translate(-1886.48 -158.99)"/></g><g id="RightCheek"><path class="cls-11" d="M2633.67,459.83v22.66s18,23,44.33,15.34,18-31,17.33-33.34-10-15.66-10-15.66S2655.67,461.16,2633.67,459.83Z" transform="translate(-1886.48 -158.99)"/><path class="cls-11" d="M2713.16,484.49h0a13.63,13.63,0,0,1,3.35,18.53L2693,538.71a11,11,0,0,1-15.18,3.22h0a11,11,0,0,1-3.18-15.45l27-40A8.14,8.14,0,0,1,2713.16,484.49Z" transform="translate(-1886.48 -158.99)"/></g></g><g id="CheekAccents"><path class="cls-10" d="M2539,578.16V545.49s-5-4-6.67,0-6,16.34,0,32.67Z" transform="translate(-1886.48 -158.99)"/><path class="cls-10" d="M2554.18,541.49c.5-4.38,2.25-13.9,8.25-16.18a3.54,3.54,0,0,0,2.24-3.32h0a3.59,3.59,0,0,0-4-3.57c-7.06.92-20.36,5.09-14.24,23.57a2.51,2.51,0,0,0,2.38,1.73h2.93A2.5,2.5,0,0,0,2554.18,541.49Z" transform="translate(-1886.48 -158.99)"/></g><path id="LeftEye" class="cls-10" d="M2531.33,456.83s11.34-15.86,56.6-2.08a9.06,9.06,0,0,1,6.4,8.67h0a9.07,9.07,0,0,1-8.73,9.07l-37.15,1.42A5.28,5.28,0,0,1,2543,469l-.25-3.52a5.28,5.28,0,0,1,5.27-5.65h0a1,1,0,0,0,1-1v-1a1,1,0,0,0-1-1Z" transform="translate(-1886.48 -158.99)"/><g id="HairColored"><path class="cls-13" d="M2485.64,442.49h0a6.81,6.81,0,0,0,6.71-5.61c.67-3.73,1.5-8,1.61-8.41a97.23,97.23,0,0,1,14-30.86c11.88-17.19,29.72-28.57,49.38-35a149.7,149.7,0,0,1,30-6.52c5.1-.55,14.83-2,19.12,2.16a2.35,2.35,0,0,1,.6.73,53.71,53.71,0,0,1-20.5,23.43,2,2,0,0,0,.9,3.68c15.15,1.18,52.82,2.44,65.1-12.61,0,0,.38,14.81-14.73,24.57a2.45,2.45,0,0,0,1.29,4.5c10.85.28,28.35-.69,34.61-9.07,0,0,.38,7.28-2.3,12.41a2.24,2.24,0,0,0,2,3.26c10.36-.12,35.28-3.71,33.1-35.67,0,0,21.75-1.25,14.25,23-4.25,14.5-12.5,22.5-11.75,31,.12,1.37,19.27-8.61,20.27-9.37,13.44-10.23,24.88-27.95,15.63-44.56-8.18-14.72-25.18-16.26-39.9-11.4l16-13a4.31,4.31,0,0,0-2.94-7.66l-37.75,2s-19.33-38.33-119.33-14c0,0,37-3.66,56.33-1,8,1.11,16.69.14,24.23,3.49,7.29,3.24,13.32,12.14,10.25,20.23-1.47,3.84-4.86,6.71-8.59,8.43s-7.84,2.46-11.9,3.17c2.65-5.87,5.28-12.68,0-18.35a14.21,14.21,0,0,0-5.54-3.56c-10.11-3.71-23.47-1.83-34.08-1.12a155.46,155.46,0,0,0-33.33,5.52c-20,5.87-43.14,16.32-57.79,31.62-11.35,11.85-17.16,27.59-20.09,43.48-.2,1.08-1,7.9-1.63,13.5A6.82,6.82,0,0,0,2485.64,442.49Z" transform="translate(-1886.48 -158.99)"/><path class="cls-13" d="M2736.61,424.17l16.18-16.87s5.59,67.26,11,96.3,41.5,65.89,113.24,50.16l10.83,9.42s-68.13,27.13-106.36-.87c0,0-8.59-5.74-18.26-17.91A113.44,113.44,0,0,1,2739,478.75Z" transform="translate(-1886.48 -158.99)"/><path class="cls-13" d="M2723.5,515.49s1,51.75,22.5,65.67c0,0,21,18,41,19.67s48.67-3.67,53.33-5,43.34-11.42,81,11.62l24.34-2s-13.67-24.66-48.17-24.33-43.17,3.67-53.17,4.33-46,3-66-10-33.33-22.33-46-60Z" transform="translate(-1886.48 -158.99)"/><path class="cls-13" d="M2474,584.49s-27,10-33.5,15-55.5,38.76-57,39.38-12,6.12-12,2.62c0,0-2.5-4,13-14.5s70-48.5,74.5-54.5,9.5-19.5,12-44c2-19.41,4.9-54.5,6-68.25a6.26,6.26,0,0,1,6.24-5.75h0a6.27,6.27,0,0,1,6.27,6.23c.11,17.89.37,68.32,0,70.33C2489,533.49,2474,584.49,2474,584.49Z" transform="translate(-1886.48 -158.99)"/></g><g id="ArmCreases"><path class="cls-10" d="M2953,808.16s-6-79.67,35-101.67l-13-6.33s-49.59,28.49-48.46,115.91" transform="translate(-1886.48 -158.99)"/><path class="cls-10" d="M2926.52,787.49s-8.84-35.86-24.57-51.59a16.42,16.42,0,0,1-4.66-15.06c1.35-6.08,6.31-10.11,21.71,2,28,22,26.67,88.91,26.67,88.91Z" transform="translate(-1886.48 -158.99)"/><path class="cls-10" d="M2921.3,806.16s-17.63-24.67-34.3-29.33c-6.67,0-13.7-25.59,17.15-13.46,25.24,15.7,23.49,26.69,32.18,28.79S2921.3,806.16,2921.3,806.16Z" transform="translate(-1886.48 -158.99)"/></g></g></g></svg>